<svg width="591" height="443" viewBox="0 0 591 443" fill="none" xmlns="http://www.w3.org/2000/svg">
<g opacity="0.5">
<path d="M0 0V122.68L0.689835 122.22L1.41112 121.725L2.12403 121.223L2.82852 120.715L3.52463 120.2L4.21243 119.68L4.89193 119.155L5.56324 118.627L6.22648 118.096L6.8817 117.563L7.52916 117.029L8.16894 116.495L8.80132 115.96L9.42646 115.427L10.0446 114.896L10.6561 114.368L12.4535 112.808L13.0414 112.299L13.6244 111.797L14.2028 111.303L14.7772 110.816L15.3479 110.339L15.9154 109.871L16.4803 109.414L17.043 108.967L17.6042 108.532L18.1644 108.109L18.7241 107.699L19.284 107.302L19.8446 106.919L20.4066 106.549L20.9704 106.194L21.537 105.853L22.1067 105.527L22.6802 105.216L23.2581 104.92L23.8412 104.639L24.4299 104.373L25.0249 104.122L25.6267 103.886L26.2359 103.664L26.8531 103.457L27.4788 103.264L28.1135 103.084L28.7575 102.918L29.4115 102.763L30.0757 102.621L30.7506 102.489L31.4364 102.368L32.1334 102.257L32.8418 102.153L33.5619 102.058L34.2936 101.969L35.0372 101.885L35.7925 101.806L36.5595 101.729L37.3382 101.655L39.7418 101.429L40.5644 101.349L41.3971 101.263L42.2393 101.172L43.0904 101.072L43.9497 100.963L44.8165 100.843L45.69 100.711L46.5693 100.565L47.4534 100.404L48.3413 100.226L49.232 100.03L50.1244 99.8146L51.0172 99.5786L51.9093 99.3207L52.7995 99.0397L53.6864 98.7346L54.5687 98.4043L55.4452 98.0479L56.3146 97.6645L57.1753 97.2534L58.0262 96.8138L58.8658 96.3453L59.6928 95.8474L60.5059 95.3196L61.3039 94.7619L62.0853 94.1739L62.8491 93.5557L63.594 92.9072L64.3188 92.2287L65.0223 91.5204L65.7036 90.7825L66.3615 90.0154L66.9951 89.2198L67.6034 88.3961L68.1855 87.545L68.7405 86.6672L69.2678 85.7635L69.7666 84.8348L70.2362 83.8821L70.6762 82.9063L71.0859 81.9085L71.465 80.8898L71.8131 79.8513L72.13 78.7943L72.4154 77.7199L72.6691 76.6294L72.8911 75.5242L73.0815 74.4054L73.2402 73.2745L73.3675 72.1327L73.4635 70.9815L73.5285 69.822L73.5629 68.6557L73.5672 67.4838L73.5417 66.3078L73.487 65.1288L73.4037 63.9481L73.2925 62.7671L73.154 61.5868L72.9891 60.4085L72.7984 59.2333L72.5828 58.0623L72.3431 56.8965L72.0804 55.737L71.7954 54.5847L71.4893 53.4406L71.1628 52.3054L70.817 51.18L70.453 50.0652L70.0717 48.9615L69.6743 47.8698L69.2616 46.7905L68.8347 45.7241L68.3947 44.6713L67.9426 43.6322L67.4793 42.6073L67.0059 41.597L66.5233 40.6014L66.0324 39.6208L65.5343 38.6552L65.0297 37.7049L64.5195 36.7698L64.0047 35.85L63.4859 34.9454L62.964 34.056L62.4397 33.1817L61.9137 32.3223L61.3866 31.4776L60.8591 30.6475L60.3317 29.8317L59.805 29.03L59.2796 28.2421L58.7558 27.4677L58.2341 26.7065L57.7149 25.9583L57.1986 25.2225L56.6854 24.4991L56.1754 23.7875L55.6686 23.0877L55.1649 22.3992L54.6642 21.7219L54.1661 21.0556L53.6703 20.4003L53.1765 19.7556L52.6842 19.1217L52.1931 18.4984L51.7026 17.8859L51.2123 17.284L50.7218 16.693L50.2307 16.1128L49.7387 15.5436L49.2453 14.9855L48.7504 14.4386L48.2538 13.9029L47.7553 13.3787L47.255 12.8658L46.7529 12.3643L46.2492 11.8742L45.7441 11.3953L45.2381 10.9274L44.7315 10.4704L44.2247 10.0238L43.7184 9.58757L43.2128 9.16119L42.7085 8.74429L42.206 8.33651L41.7057 7.93736L41.2082 7.54635L40.7139 7.16298L40.2233 6.78667L39.7369 6.41684L39.2552 6.05287L37.8426 4.98935L37.384 4.64195L36.9322 4.29688L36.4875 3.95339L36.0503 3.61067L35.6208 3.26798L35.1993 2.92447L34.7861 2.5794L34.3813 2.23198L33.985 1.88138L33.5974 1.52687L33.2186 1.16763L32.8485 0.802986L32.4871 0.432205L32.1345 0.0545655L32.0857 0H0Z" fill="#E1E6EB" fill-opacity="0.5"/>
<path d="M292.378 0H580.866C586.474 0.0901239 591 6.17671 591 13.6719V84.1688C591 91.2834 585.853 96.3862 580.74 94.3419C576.994 92.8445 572.329 89.1608 566.916 84.887C557.5 77.4529 545.823 68.2333 532.794 65.6288C523.704 63.8119 513.956 65.2142 504.132 66.6273C491.779 68.4045 479.306 70.1987 467.875 65.6288C466.461 65.0637 465.048 64.4946 463.634 63.9256C444.527 56.2344 425.42 48.5433 406.312 50.4529C397.655 51.3182 388.998 54.1543 380.341 56.9904C368.477 60.877 356.614 64.7636 344.75 63.5779C329.901 62.0938 315.052 48.7975 304.091 36.8983C301.892 34.5115 299.383 32.393 296.868 30.2706C291.097 25.3993 285.302 20.5076 283.188 12.3046C281.441 5.5279 286.998 0.0851903 292.378 0Z" fill="#E1E6EB" fill-opacity="0.5"/>
<path d="M0 429.327V358.83C0 351.716 5.14664 346.613 10.2604 348.657C20.5208 352.759 41.0417 360.963 61.5625 365.065C68.4028 366.432 75.243 367.343 82.0833 368.255C95.7639 370.078 109.444 371.901 123.125 377.37C129.439 379.894 135.753 383.195 142.067 386.496C156.274 393.923 170.481 401.35 184.687 399.93C193.922 399.008 203.156 394.347 212.391 389.686C223.677 383.99 234.964 378.293 246.25 379.421C261.099 380.905 275.948 394.202 286.909 406.101C289.108 408.488 291.617 410.606 294.132 412.728C299.903 417.6 305.698 422.491 307.812 430.694C309.573 437.525 303.914 443 298.494 443H10.2604C4.59374 443 0 436.878 0 429.327Z" fill="#E1E6EB" fill-opacity="0.5"/>
<path d="M98.3387 195.442L98.4297 194.969L98.5303 194.498L98.6404 194.031L98.7599 193.567L98.8887 193.107L99.0265 192.651L99.1732 192.2L99.3287 191.754L99.4926 191.313L99.6648 190.877L99.845 190.447L100.033 190.023L100.229 189.605L100.431 189.193L100.641 188.789L100.858 188.391L101.08 188L101.309 187.616L101.544 187.24L101.784 186.872L102.029 186.511L102.279 186.157L102.534 185.812L102.792 185.475L103.054 185.145L103.32 184.824L103.588 184.511L103.86 184.205L104.133 183.908L104.409 183.618L104.686 183.337L104.965 183.063L105.244 182.798L105.525 182.539L105.805 182.289L106.085 182.045L106.365 181.809L106.645 181.58L106.923 181.358L107.201 181.142L107.477 180.933L107.751 180.73L108.023 180.533L108.293 180.342L108.56 180.156L108.825 179.976L109.087 179.801L109.345 179.63L109.601 179.464L109.853 179.302L110.102 179.143L110.347 178.989L110.588 178.837L110.826 178.689L111.957 177.987L112.172 177.853L112.383 177.72L112.591 177.589L112.796 177.46L112.997 177.331L113.195 177.204L113.39 177.078L113.582 176.952L113.771 176.828L113.957 176.704L114.141 176.581L114.322 176.459L114.501 176.337L114.678 176.216L114.852 176.096L115.025 175.976L115.196 175.856L115.365 175.737L115.533 175.619L115.698 175.5L115.863 175.382L116.026 175.265L116.187 175.147L116.348 175.03L116.507 174.912L116.664 174.795L116.821 174.677L116.976 174.558L117.13 174.439L117.283 174.319L117.435 174.198L117.585 174.076L117.735 173.953L117.883 173.828L118.031 173.702L118.177 173.574L118.322 173.444L118.467 173.312L118.611 173.177L118.754 173.041L118.897 172.901L119.039 172.76L119.181 172.615L119.322 172.468L119.463 172.318L119.604 172.165L119.745 172.009L119.886 171.849L120.027 171.687L120.169 171.521L120.311 171.353L120.454 171.181L120.597 171.006L120.741 170.828L120.887 170.647L121.033 170.463L121.181 170.276L121.331 170.086L121.946 169.302L122.105 169.101L122.266 168.897L122.429 168.693L122.595 168.486L122.764 168.279L122.935 168.071L123.109 167.862L123.286 167.653L123.466 167.444L123.649 167.235L123.836 167.027L124.025 166.82L124.218 166.614L124.414 166.41L124.613 166.207L124.816 166.007L125.022 165.809L125.231 165.614L125.444 165.423L125.66 165.235L125.879 165.051L126.101 164.872L126.327 164.698L126.555 164.529L126.787 164.367L127.022 164.21L127.259 164.061L127.499 163.918L127.741 163.783L127.986 163.657L128.233 163.538L128.482 163.428L128.733 163.328L128.985 163.237L129.239 163.155L129.494 163.084L129.75 163.023L130.006 162.973L130.263 162.933L130.52 162.905L130.778 162.888L131.034 162.882L131.291 162.888L131.546 162.905L131.8 162.934L132.053 162.974L132.305 163.027L132.554 163.091L132.802 163.167L133.047 163.255L133.289 163.354L133.529 163.465L133.765 163.588L133.998 163.722L134.227 163.867L134.453 164.023L134.674 164.191L134.891 164.368L135.104 164.556L135.313 164.754L135.516 164.962L135.715 165.178L135.91 165.403L136.099 165.636L136.283 165.877L136.463 166.125L136.637 166.38L136.807 166.64L136.972 166.906L137.133 167.178L137.289 167.453L137.44 167.733L137.588 168.015L137.731 168.301L137.87 168.588L138.006 168.878L138.138 169.168L138.268 169.459L138.394 169.75L138.518 170.04L138.64 170.33L138.76 170.618L138.879 170.905L139.112 171.472L139.228 171.752L139.344 172.028L139.46 172.302L139.576 172.572L139.693 172.839L139.811 173.102L139.931 173.361L140.053 173.616L140.177 173.867L140.303 174.115L140.431 174.359L140.563 174.599L140.697 174.836L140.835 175.069L140.976 175.299L141.121 175.526L141.27 175.75L141.422 175.972L141.578 176.192L141.739 176.41L141.903 176.626L142.07 176.841L142.242 177.055L142.418 177.268L142.597 177.481L142.78 177.695L142.966 177.909L143.156 178.124L143.349 178.34L143.544 178.558L144.146 179.226L144.351 179.454L144.557 179.685L144.764 179.92L144.972 180.159L145.181 180.403L145.389 180.65L145.598 180.903L145.805 181.16L146.012 181.423L146.217 181.69L146.42 181.963L146.621 182.242L146.819 182.526L147.014 182.815L147.206 183.111L147.394 183.411L147.577 183.718L147.757 184.03L147.931 184.347L148.1 184.67L148.263 184.998L148.421 185.331L148.573 185.67L148.718 186.013L148.857 186.36L148.99 186.712L149.115 187.069L149.233 187.429L149.344 187.793L149.447 188.161L149.542 188.532L149.63 188.906L149.71 189.282L149.781 189.661L149.844 190.043L149.899 190.426L149.945 190.811L149.983 191.197L150.012 191.584L150.032 191.971L150.044 192.359L150.048 192.747L150.042 193.135L150.028 193.522L150.006 193.909L149.975 194.294L149.935 194.678L149.887 195.06L149.831 195.44L149.767 195.818L149.695 196.193L149.615 196.566L149.527 196.935L149.432 197.301L149.329 197.664L149.219 198.023L149.103 198.378L148.979 198.729L148.849 199.076L148.713 199.419L148.57 199.757L148.422 200.09L148.268 200.418L148.109 200.742L147.945 201.061L147.776 201.375L147.602 201.684L147.424 201.988L147.242 202.286L147.057 202.58L146.867 202.869L146.675 203.152L146.479 203.431L146.281 203.704L146.08 203.973L145.877 204.237L145.671 204.496L145.464 204.75L145.255 205L145.043 205.245L144.831 205.485L144.616 205.72L144.4 205.951L144.183 206.177L143.964 206.398L143.744 206.614L143.523 206.826L143.301 207.034L143.077 207.237L142.853 207.435L142.627 207.628L142.401 207.817L142.174 208.001L141.946 208.181L141.717 208.356L141.488 208.527L141.258 208.693L141.028 208.855L140.797 209.012L140.566 209.165L140.335 209.314L140.103 209.458L139.871 209.599L139.64 209.736L139.409 209.869L139.177 209.999L138.947 210.125L138.716 210.248L138.487 210.368L138.258 210.486L138.03 210.6L137.802 210.713L137.576 210.824L137.351 210.932L137.127 211.04L136.904 211.146L136.243 211.459L136.025 211.563L135.809 211.666L135.594 211.77L135.38 211.874L135.168 211.979L134.957 212.084L134.747 212.191L134.538 212.299L134.331 212.408L134.124 212.518L133.918 212.631L133.714 212.745L133.51 212.861L133.306 212.98L133.104 213.1L132.901 213.222L132.7 213.347L132.498 213.474L132.296 213.603L132.094 213.734L131.893 213.868L131.69 214.004L131.488 214.141L131.284 214.281L131.08 214.423L130.876 214.567L130.67 214.712L130.463 214.859L129.622 215.458L129.407 215.61L129.191 215.762L128.974 215.915L128.754 216.067L128.532 216.219L128.308 216.371L128.082 216.522L127.853 216.672L127.622 216.821L127.389 216.968L127.154 217.114L126.916 217.258L126.676 217.4L126.433 217.54L126.188 217.677L125.941 217.812L125.691 217.945L125.439 218.075L125.184 218.203L124.927 218.327L124.667 218.45L124.405 218.569L124.14 218.685L123.873 218.799L123.604 218.91L123.331 219.018L123.057 219.123L122.78 219.226L122.5 219.325L122.218 219.422L121.934 219.515L121.646 219.606L121.357 219.693L121.064 219.777L120.769 219.858L120.472 219.936L120.172 220.01L119.87 220.08L119.565 220.147L119.257 220.21L118.947 220.269L118.635 220.324L118.32 220.375L118.003 220.42L117.684 220.461L117.362 220.497L117.039 220.527L116.714 220.551L116.387 220.569L116.058 220.581L115.728 220.587L115.396 220.586L115.063 220.578L114.728 220.563L114.393 220.541L114.057 220.511L113.72 220.474L113.383 220.429L113.045 220.375L112.708 220.314L112.37 220.245L112.032 220.167L111.694 220.081L111.357 219.986L111.021 219.882L110.686 219.77L110.351 219.649L110.017 219.52L109.685 219.382L109.355 219.234L109.026 219.078L108.698 218.914L108.373 218.74L108.05 218.558L107.729 218.366L107.411 218.166L107.095 217.958L106.782 217.74L106.472 217.515L106.165 217.28L105.862 217.037L105.561 216.786L105.264 216.527L104.971 216.259L104.682 215.983L104.396 215.699L104.115 215.408L103.838 215.108L103.565 214.801L103.296 214.486L103.033 214.164L102.774 213.834L102.52 213.497L102.271 213.154L102.027 212.803L101.789 212.445L101.556 212.081L101.328 211.71L101.107 211.332L100.891 210.949L100.681 210.559L100.478 210.163L100.281 209.761L100.091 209.353L99.9074 208.94L99.731 208.521L99.5619 208.097L99.4003 207.668L99.2463 207.233L99.1001 206.794L98.962 206.35L98.8321 205.902L98.7106 205.449L98.5977 204.992L98.4936 204.532L98.3984 204.068L98.3123 203.601L98.2355 203.13L98.1681 202.657L98.1102 202.181L98.0619 201.704L98.0233 201.224L97.9946 200.743L97.9758 200.26L97.967 199.777L97.9681 199.293L97.9793 198.809L98.0006 198.325L98.032 197.841L98.0734 197.358L98.1248 196.877L98.1862 196.397L98.2576 195.918L98.3387 195.442Z" fill="#E1E6EB" fill-opacity="0.5"/>
<path d="M470.008 198.939L469.383 198.944L468.759 198.985L468.136 199.061L467.515 199.171L466.896 199.315L466.281 199.492L465.669 199.702L465.062 199.944L464.459 200.216L463.863 200.517L463.272 200.847L462.688 201.204L462.111 201.586L461.54 201.992L460.978 202.421L460.423 202.871L459.877 203.341L459.339 203.829L458.808 204.332L458.287 204.851L457.773 205.382L457.268 205.925L456.771 206.477L456.283 207.037L455.801 207.604L455.328 208.175L454.862 208.75L454.402 209.326L453.95 209.903L453.503 210.479L453.062 211.053L452.627 211.624L451.769 212.75L451.347 213.303L450.927 213.85L450.51 214.387L450.096 214.916L449.683 215.436L449.271 215.945L448.859 216.443L448.448 216.931L448.036 217.408L447.623 217.873L447.208 218.327L446.792 218.769L446.373 219.201L445.952 219.621L445.527 220.03L445.099 220.428L444.667 220.817L444.231 221.195L443.79 221.565L443.345 221.925L442.895 222.278L442.441 222.623L441.981 222.961L441.517 223.293L441.048 223.62L440.573 223.942L440.094 224.26L439.609 224.575L439.12 224.888L438.626 225.199L438.127 225.508L437.623 225.817L437.114 226.125L436.6 226.433L436.081 226.741L435.557 227.05L435.027 227.36L434.492 227.671L433.951 227.983L433.404 228.297L432.852 228.614L432.293 228.932L428.205 231.252L427.595 231.6L426.978 231.954L426.355 232.313L425.725 232.679L425.088 233.052L424.446 233.432L423.797 233.819L423.143 234.215L422.483 234.62L421.817 235.034L421.147 235.458L420.472 235.893L419.793 236.338L419.109 236.794L418.422 237.262L417.732 237.743L417.04 238.237L416.345 238.743L415.648 239.264L414.951 239.799L414.253 240.348L413.556 240.912L412.859 241.492L412.163 242.088L411.47 242.699L410.779 243.327L410.092 243.971L409.409 244.632L408.731 245.31L408.058 246.006L407.392 246.718L406.733 247.448L406.081 248.195L405.438 248.96L404.805 249.742L404.182 250.542L403.569 251.359L402.968 252.193L402.379 253.044L401.803 253.911L401.24 254.796L400.692 255.696L400.159 256.612L399.641 257.544L399.14 258.491L398.655 259.453L398.188 260.429L397.739 261.419L397.308 262.422L396.895 263.438L396.503 264.466L396.13 265.506L395.777 266.557L395.445 267.618L395.134 268.689L394.844 269.769L394.575 270.858L394.328 271.954L394.103 273.057L393.901 274.167L393.72 275.282L393.562 276.403L393.426 277.527L393.312 278.655L393.22 279.786L393.151 280.919L393.104 282.054L393.079 283.189L393.077 284.324L393.095 285.459L393.135 286.592L393.197 287.724L393.279 288.852L393.382 289.978L393.504 291.101L393.646 292.219L393.807 293.333L393.985 294.442L394.18 295.546L394.391 296.644L394.617 297.737L394.857 298.825L395.11 299.907L395.374 300.983L395.649 302.054L395.934 303.12L396.227 304.182L396.527 305.238L396.834 306.291L397.147 307.339L397.464 308.384L397.785 309.426L398.109 310.465L398.436 311.503L398.765 312.538L399.095 313.573L399.426 314.606L402.442 323.93L402.782 324.973L403.124 326.017L403.468 327.063L403.815 328.111L404.165 329.159L404.519 330.209L404.878 331.26L405.241 332.311L405.61 333.362L405.985 334.413L406.367 335.462L406.757 336.51L407.154 337.555L407.561 338.598L407.976 339.636L408.402 340.67L408.838 341.698L409.286 342.72L409.745 343.734L410.216 344.74L410.7 345.736L411.197 346.722L411.708 347.697L412.232 348.659L412.771 349.608L413.324 350.543L413.891 351.462L414.474 352.364L415.071 353.249L415.683 354.115L416.311 354.962L416.953 355.789L417.61 356.595L418.282 357.378L418.968 358.139L419.668 358.877L420.383 359.59L421.111 360.278L421.852 360.941L422.607 361.579L423.373 362.189L424.152 362.774L424.942 363.331L425.744 363.86L426.555 364.363L427.377 364.837L428.207 365.284L429.047 365.703L429.894 366.094L430.749 366.457L431.61 366.793L432.477 367.102L433.35 367.384L434.228 367.639L435.11 367.867L435.996 368.069L436.884 368.246L437.775 368.398L438.668 368.525L439.561 368.627L440.456 368.707L441.35 368.763L442.245 368.796L443.138 368.808L444.03 368.798L444.92 368.767L445.808 368.714L446.694 368.642L447.577 368.549L448.457 368.437L449.333 368.305L450.206 368.153L451.075 367.983L451.939 367.793L452.799 367.585L453.654 367.358L454.504 367.113L455.349 366.85L456.188 366.569L457.021 366.271L457.848 365.955L458.669 365.623L459.483 365.274L460.291 364.91L461.091 364.53L461.884 364.135L462.67 363.727L463.448 363.305L464.219 362.871L464.981 362.425L465.735 361.968L466.482 361.501L467.22 361.023L467.949 360.537L468.67 360.042L469.383 359.54L470.088 359.032L470.784 358.517L471.472 357.997L472.151 357.472L472.823 356.944L473.486 356.413L474.141 355.88L474.788 355.346L475.428 354.812L476.061 354.277L476.686 353.744L477.304 353.213L477.915 352.685L479.713 351.125L480.301 350.616L480.884 350.114L481.462 349.62L482.036 349.133L482.607 348.656L483.175 348.188L483.74 347.731L484.302 347.284L484.864 346.849L485.424 346.426L485.983 346.016L486.543 345.619L487.104 345.236L487.666 344.866L488.23 344.511L488.796 344.17L489.366 343.844L489.939 343.533L490.517 343.237L491.1 342.956L491.689 342.69L492.284 342.439L492.886 342.203L493.495 341.981L494.112 341.774L494.738 341.581L495.373 341.401L496.017 341.235L496.671 341.08L497.335 340.938L498.01 340.806L498.696 340.685L499.393 340.574L500.101 340.47L500.821 340.375L501.553 340.286L502.296 340.202L503.052 340.123L503.819 340.046L504.598 339.972L507.001 339.746L507.824 339.666L508.656 339.58L509.499 339.489L510.35 339.389L511.209 339.28L512.076 339.16L512.949 339.028L513.829 338.882L514.713 338.721L515.601 338.543L516.491 338.347L517.384 338.132L518.276 337.896L519.169 337.638L520.059 337.357L520.946 337.052L521.828 336.721L522.705 336.365L523.574 335.981L524.435 335.57L525.285 335.131L526.125 334.662L526.952 334.164L527.765 333.637L528.563 333.079L529.345 332.491L530.108 331.873L530.853 331.224L531.578 330.546L532.282 329.837L532.963 329.099L533.621 328.332L534.254 327.537L534.863 326.713L535.445 325.862L536 324.984L536.527 324.08L537.026 323.152L537.495 322.199L537.935 321.223L538.345 320.225L538.724 319.207L539.072 318.168L539.389 317.111L539.675 316.037L539.928 314.946L540.15 313.841L540.341 312.722L540.5 311.591L540.627 310.45L540.723 309.298L540.788 308.139L540.822 306.973L540.826 305.801L540.801 304.625L540.746 303.446L540.663 302.265L540.552 301.084L540.413 299.904L540.248 298.725L540.058 297.55L539.842 296.379L539.602 295.213L539.34 294.054L539.055 292.902L538.749 291.758L538.422 290.622L538.076 289.497L537.712 288.382L537.331 287.279L536.934 286.187L536.521 285.107L536.094 284.041L535.654 282.988L535.202 281.949L534.739 280.924L534.265 279.914L533.783 278.918L533.292 277.938L532.794 276.972L532.289 276.022L531.779 275.087L531.264 274.167L530.745 273.262L530.223 272.373L529.699 271.499L529.173 270.639L528.646 269.795L528.118 268.965L527.591 268.149L527.064 267.347L526.539 266.559L526.015 265.785L525.493 265.024L524.974 264.275L524.458 263.54L523.945 262.816L523.435 262.105L522.928 261.405L522.424 260.716L521.923 260.039L521.425 259.373L520.93 258.717L520.436 258.073L519.944 257.439L519.452 256.815L518.962 256.203L518.472 255.601L517.981 255.01L517.49 254.43L516.998 253.861L516.505 253.303L516.01 252.756L515.513 252.22L515.015 251.696L514.514 251.183L514.012 250.681L513.508 250.191L513.003 249.712L512.497 249.244L511.991 248.787L511.484 248.341L510.978 247.905L510.472 247.478L509.968 247.061L509.465 246.654L508.965 246.254L508.467 245.863L507.973 245.48L507.483 245.104L506.996 244.734L506.515 244.37L505.102 243.306L504.643 242.959L504.191 242.614L503.747 242.27L503.31 241.928L502.88 241.585L502.459 241.241L502.045 240.896L501.641 240.549L501.244 240.198L500.857 239.844L500.478 239.485L500.108 239.12L499.746 238.749L499.394 238.372L499.05 237.986L498.714 237.593L498.387 237.191L498.067 236.78L497.755 236.359L497.451 235.927L497.154 235.485L496.864 235.032L496.579 234.568L496.301 234.092L496.028 233.605L495.76 233.105L495.496 232.594L495.236 232.071L494.979 231.535L494.724 230.988L494.472 230.43L494.221 229.859L493.971 229.278L493.722 228.686L493.472 228.083L493.221 227.47L492.968 226.847L492.714 226.215L491.932 224.27L491.664 223.606L491.391 222.936L491.112 222.261L490.828 221.581L490.538 220.896L490.242 220.207L489.938 219.515L489.628 218.821L489.309 218.125L488.984 217.428L488.65 216.731L488.307 216.033L487.957 215.336L487.597 214.641L487.229 213.948L486.852 213.257L486.465 212.569L486.07 211.885L485.665 211.207L485.25 210.535L484.825 209.87L484.39 209.213L483.946 208.565L483.491 207.928L483.027 207.302L482.552 206.69L482.067 206.091L481.572 205.508L481.068 204.941L480.553 204.392L480.029 203.862L479.496 203.352L478.954 202.863L478.403 202.398L477.843 201.956L477.275 201.54L476.7 201.15L476.117 200.789L475.527 200.456L474.931 200.154L474.329 199.884L473.722 199.646L473.111 199.441L472.495 199.271L471.876 199.135L471.255 199.035L470.632 198.969L470.008 198.939Z" fill="#E1E6EB" fill-opacity="0.5"/>
</g>
</svg>
